<svg id="Layer_1" data-name="Layer 1" xmlns="http://www.w3.org/2000/svg" xmlns:xlink="http://www.w3.org/1999/xlink" viewBox="0 0 590.2 598.74"><defs><style>.cls-1{fill-rule:evenodd;fill:url(#GradientFill_309);}</style><linearGradient id="GradientFill_309" x1="255.08" y1="126" x2="346.66" y2="502.39" gradientUnits="userSpaceOnUse"><stop offset="0" stop-color="#00bff2"/><stop offset="1" stop-color="#2d72b8"/></linearGradient></defs><title>fish</title><path class="cls-1" d="M471.23,211.42A207.72,207.72,0,0,0,344,99c-30.49-9.14-54.91-11.59-86.62-8.81,31.28-7.12,57.59-6.55,89.33-1.28,32.18,6.77,55.54,16.56,83.09,34.62,26.59,18.66,44.17,36.69,62.45,63.56a237.55,237.55,0,0,1,24.33,48.31c-12.58-49.18-38.31-91.49-76.66-124.86-19.9-16.91-37.4-28-61.16-38.85,24.9,7.68,44.53,17.77,66.42,32.11,29.37,20.69,48.76,40.84,68.92,70.67a264.28,264.28,0,0,1,23.71,45.73,273.24,273.24,0,0,0-16.15-50.09c-15.92-35.19-33-59.68-60.42-86.93C430.8,54.44,403.55,37.38,364.62,22,331.4,9.75,304.19,4.34,268.82,2.73,351.5-7,430.18,25.2,478.06,63.5c29.38,24.89,48.65,47.88,68.16,81.11C580.57,200.48,595.7,258.4,595,313.45c-37-19.07-71.44-25.05-103-22.76-26.59,4-52.78,10.75-75.52,21.45q-7.15,3.53-14,7.4v0c-14.46,8.49-27,18.92-36.64,31.66,7.94-16.35,20-29.32,34.5-39.59-7-12.61-29.33-20.91-39.52-20.45,0,0-47.44,137.77-144.91,149.83l0,.42c-28.83,2.08-50.23-1.23-66-8.68a69.54,69.54,0,0,1-10.21-5.9q19.84,41.77,52.51,64.84c55.64,39.13,148,45.79,231.43,22.14,3.34,16.94-11.16,35.32-27.36,41.07,43.27,15.29,88.77-18.46,99.42-54.28a23.23,23.23,0,0,0-8.13-25.38c-17.34-13.5-29.25-27.78-37-41.71-31.34,19.61-159.32,92.15-244.09,40.86,70.8,33.93,178.26-13.54,238.83-51.76-10.64-25.82-7.53-49.36,1-63.08-4.85,15.79-6.27,53.9,30.82,85.85A50.46,50.46,0,0,0,547,441.49a191.49,191.49,0,0,0,39.59-63.16C558.32,491.41,461.19,581.51,329.65,597.85c-42.59,4.26-75.38,1.37-116.64-10.07-40.52-12.53-69.4-27.64-102.57-54.06-30.91-26.06-50.87-50.14-70.7-85.36C21.08,412.94,11.68,383.41,6.56,343.69c-4-41-1.24-72.53,9.8-112.23,12.47-40,27.71-68.53,54.19-101C97.71,99,122.82,79.25,159.69,60.21,125.3,81,102,103.92,77.74,136.15c-22.66,32.79-35,61.06-43.95,100C26.38,273.4,26,302.64,32.62,340.07a264.66,264.66,0,0,0,14.92,50,260.93,260.93,0,0,1-9.66-50.77c-2.55-36.38.71-64.19,11.47-99,8.85-26.11,18.7-45.51,34.64-68C71,195.57,63.82,216.49,57.93,242.6c-6.47,33.69-6.55,60.18-.33,94a241.78,241.78,0,0,0,10.94,38,234.85,234.85,0,0,1-3.53-39c.5-32.25,5.42-56.47,17.54-86.36,12.74-28.61,26.53-48.4,49.24-70,17.6-15.81,33.08-25.95,54.69-35.6C167,155,153,167.23,137.74,184c-18.83,22.18-29.75,41.9-39.07,69.53-7.28,24-10,43.25-9.4,68.3,3.14-24.71,8.63-43.18,19.49-65.59,11.59-22,28.58-42.13,49-59.43-59.91,75.64-66.67,222,23,233.4-3.31-8.21-4.41-18.39-2.63-30.27C190.21,345,330.49,387.71,299.21,205c-10,51.93-83.72,30.44-120.13,119.32,18-46.25,15.68-71.28,10.29-89.89a66.59,66.59,0,0,1,38.47-80.29c45-18.77,94.5-25.28,137.24-13.83a197.21,197.21,0,0,1,106.15,71.09ZM505.9,362.83a17.44,17.44,0,0,0-11.84,6.28h0a17.52,17.52,0,1,0,27,22.33h0a17.52,17.52,0,0,0-15.17-28.61Zm6.2,6.46.6,0a12.2,12.2,0,0,0-14.52,3.27h0A12.18,12.18,0,0,0,517,388a13,13,0,0,0,1.23-1.8,9.29,9.29,0,1,1-6.08-16.95ZM170,56c65.39-44.26,168.33-25,208.94-7.22C303.09,5.88,217.36,12.06,170,56Zm35.23,78.85c53.89-37.87,135.83-18.37,166.12-5.72-58-34.84-123.54-32-166.12,5.72ZM91.63,159.57C176.46,51.26,324.46,54.19,362.44,66.7,268.69,21.73,127.49,71.77,91.63,159.57Z" transform="translate(-4.8 -0.98)"/></svg>