<svg id="Layer_1" data-name="Layer 1" xmlns="http://www.w3.org/2000/svg" xmlns:xlink="http://www.w3.org/1999/xlink" viewBox="0 0 583.99 600"><defs><style>.cls-1,.cls-2,.cls-3{fill-rule:evenodd;}.cls-1{fill:url(#GradientFill_309);}.cls-2{fill:url(#GradientFill_322);}.cls-3{fill:#fff;}</style><linearGradient id="GradientFill_309" x1="292.5" y1="386.81" x2="346.83" y2="518.2" gradientUnits="userSpaceOnUse"><stop offset="0" stop-color="#00bff2"/><stop offset="1" stop-color="#2d72b8"/></linearGradient><linearGradient id="GradientFill_322" x1="388.68" y1="95.5" x2="250.97" y2="397.61" gradientUnits="userSpaceOnUse"><stop offset="0" stop-color="#ffca1e"/><stop offset="1" stop-color="#f37643"/></linearGradient></defs><title>weather</title><path class="cls-1" d="M567.63,403.68c-128.69,117-156.12-5.15-107.58-37.57-59.39-7.26-74.91,38.53-96.32,54.72,26.6,6.48,45.28-10,45.28-10-34.51,40.33-78.86,8.74-78.86,8.74l0-.05c-9.79-6.44-21.66-17.86-36.71-36.12-65.1-79-132.88-101.16-177.44-30.77,29.5-4.76,60.89,2.76,65.89,29.49,1.85,9.89-1,20.64-8.55,26.6,29.33,3.73,51.66-15.9,51.66-15.9-38.3,66.83-124.84-18-179.43,45.25,39,87.22,124.65,151.6,229.15,160.81C401,610,515.25,537,558.43,427.52,560.38,423,567.26,404.3,567.63,403.68Z" transform="translate(-5.9 0)"/><path class="cls-2" d="M467.42,201.91c-24.24-51.88-70-90.72-125.92-107.83-30.17-8.77-54.33-11.12-85.71-8.45,31-6.84,57-6.29,88.39-1.23,31.84,6.49,54.95,15.89,82.22,33.21,26.31,17.91,43.7,35.21,61.79,61A225.75,225.75,0,0,1,512.27,225c-12.45-47.19-37.91-87.78-75.86-119.8-19.69-16.23-37-26.86-60.51-37.28,24.63,7.37,44.06,17.06,65.71,30.81,29.07,19.86,48.26,39.19,68.2,67.81a251.69,251.69,0,0,1,23.46,43.87,255.61,255.61,0,0,0-16-48.05C501.53,128.55,484.6,105,457.51,78.9c-30.1-27.6-57.06-44-95.58-58.76C329.06,8.42,302.14,3.22,267.14,1.68,349-7.64,426.81,23.24,474.18,60c29.08,23.88,48.15,45.94,67.45,77.82,50.7,80,59.09,164.31,36.17,237.36l-20.08,18.26c-18.19,16.55-45.37,38.27-70.16,44.36-9.66,2.37-21,2.8-28.24-4.93-8.27-8.8-8.58-23.88-5.32-34.71,2.4-8,7.11-15.68,14.27-20.46l31.3-20.91-37.7-4.6c-28.42-3.48-53,3.27-74.07,22.19-7.26,6.52-13.4,13.79-19.6,21.21-3.86,4.63-8.55,10.51-13.38,14.17l-5.28,4a54.85,54.85,0,0,1-9.07-4.35l-.05-.07-2.17-1.43c-12.12-8-24.45-22.26-33.52-33.26C274,337.31,222.58,288.25,168.2,297.26c-28.84,4.78-49.79,24.65-64.58,48L87,371.53l31.34-5c16-2.59,45.49-2.06,49.26,18.13.77,4.11.2,10.35-3.41,13.18l-8.76,6.88c-9.43-1.19-18.62-2.85-26-3.81C115,399,100.26,398,85.75,400.27A82.21,82.21,0,0,0,38.17,425c-17-32.11-25.68-59.65-30.53-96.14-4-39.33-1.23-69.59,9.69-107.68,12.34-38.43,27.42-65.76,53.62-97,26.87-30.1,51.72-49.09,88.21-67.36-34,19.9-57.13,41.94-81.09,72.86-22.43,31.47-34.63,58.59-43.49,95.94-7.33,35.75-7.73,63.81-1.16,99.72a248.63,248.63,0,0,0,14.76,48,244.07,244.07,0,0,1-9.56-48.72c-2.51-34.9.71-61.59,11.35-95,8.76-25.06,18.51-43.67,34.28-65.24-12.82,22.32-20,42.39-25.78,67.44C52.06,264.16,52,289.58,58.14,322A225.56,225.56,0,0,0,69,358.44,218.52,218.52,0,0,1,65.47,321c.49-30.94,5.36-54.19,17.36-82.87,12.61-27.44,26.25-46.44,48.72-67.12,17.41-15.18,32.74-24.91,54.12-34.16-19.26,10.89-33.16,22.64-48.23,38.71-18.64,21.28-29.44,40.2-38.67,66.72-7.2,23-9.84,41.49-9.29,65.52,3.11-23.7,8.54-41.42,19.28-62.93,43.49-80,163.67-134.57,253.62-111.2a195.54,195.54,0,0,1,105,68.21Zm-298-149.08c64.7-42.47,166.56-23.95,206.75-6.93-75.07-41.2-159.9-35.27-206.75,6.93Zm34.86,75.66c53.32-36.34,134.4-17.63,164.37-5.49-57.38-33.43-122.24-30.73-164.37,5.49ZM91.82,152.16c83.93-103.92,230.37-101.1,268-89.1C267,19.92,127.29,67.92,91.82,152.16Z" transform="translate(-5.9 0)"/><path class="cls-3" d="M270.93,207.77c8.13-12.68,27.7-19.28,46.47-3.68-34.17-6.75-41.46,22.78-40.84,29-4.31-5.9-10.95-2-14.49-7.92,2.15-8.37-3.22-13.09-8.86-16.75-7.86-5.11-18.73-6.83-28.2-6.34C244.72,186.17,262,194.68,270.93,207.77Z" transform="translate(-5.9 0)"/><path class="cls-3" d="M340.45,283.91c10.1-15.64,34.67-8,49.36-8.48-12.5,7.48-25.15,5.49-31.86,10.75-9.05,7.09-12.71,17.48-12.39,20.72-3.92-5.35-9.94-1.84-13.16-7.2,2-7.58-2.92-11.87-8-15.2-7.13-4.64-17-6.2-25.6-5.75C316.66,264.3,332.33,272,340.45,283.91Z" transform="translate(-5.9 0)"/><path class="cls-3" d="M457,246.2c-8.13-12.68-27.7-19.28-46.47-3.68,34.17-6.74,41.46,22.78,40.83,29,4.32-5.89,11-2,14.5-7.92-4.58-17.82,32.71-14.75,41.45-32.1C490.91,239.12,465.9,233.11,457,246.2Z" transform="translate(-5.9 0)"/></svg>